<?xml version="1.0" encoding="UTF-8"?>
<svg xmlns="http://www.w3.org/2000/svg" xmlns:xlink="http://www.w3.org/1999/xlink" width="400px" height="400px" viewBox="0 0 400 400" version="1.1">
<defs>
<filter id="alpha" filterUnits="objectBoundingBox" x="0%" y="0%" width="100%" height="100%">
  <feColorMatrix type="matrix" in="SourceGraphic" values="0 0 0 0 1 0 0 0 0 1 0 0 0 0 1 0 0 0 1 0"/>
</filter>
<mask id="mask0">
  <g filter="url(#alpha)">
<rect x="0" y="0" width="400" height="400" style="fill:rgb(0%,0%,0%);fill-opacity:0.101961;stroke:none;"/>
  </g>
</mask>
<clipPath id="clip1">
  <rect x="0" y="0" width="400" height="400"/>
</clipPath>
<g id="surface5" clip-path="url(#clip1)">
<path style=" stroke:none;fill-rule:nonzero;fill:rgb(0%,0%,0%);fill-opacity:1;" d="M 238.175781 197.289062 C 238.175781 197.289062 228.78125 181.367188 226.902344 184.261719 C 225.019531 187.15625 219.382812 188.601562 220.324219 194.390625 C 221.261719 200.183594 240.992188 219 240.992188 219 Z M 238.175781 197.289062 "/>
</g>
</defs>
<g id="surface1">
<path style=" stroke:none;fill-rule:nonzero;fill:rgb(90.196078%,90.196078%,90.196078%);fill-opacity:1;" d="M 306.570312 378.949219 L 327.40625 331.21875 L 306.613281 384.082031 L 306.65625 389.453125 C 305.136719 389.472656 303.632812 389.433594 302.140625 389.335938 L 303.171875 320.300781 L 303.144531 319.765625 L 303.183594 319.664062 L 303.28125 313.140625 L 280.46875 262.109375 L 303.253906 308.257812 L 303.335938 309.636719 L 304.117188 257.476562 L 284.410156 204.570312 L 304.171875 248.316406 L 303.964844 140.253906 L 303.964844 139.894531 L 303.972656 140.246094 L 305.28125 225.414062 L 323.242188 190.820312 L 305.339844 232.75 L 305.730469 279.40625 L 322.257812 233.871094 L 305.792969 286.265625 L 306.011719 312.207031 L 330.042969 248.78125 L 306.085938 321.257812 Z M 306.570312 378.949219 "/>
<path style=" stroke:none;fill-rule:nonzero;fill:rgb(90.196078%,90.196078%,90.196078%);fill-opacity:1;" d="M 376.683594 380.453125 L 397.515625 332.722656 L 376.726562 385.585938 L 376.769531 390.957031 C 375.25 390.976562 373.742188 390.9375 372.25 390.839844 L 373.285156 321.804688 L 373.257812 321.269531 L 373.292969 321.167969 L 373.394531 314.644531 L 350.578125 263.613281 L 373.367188 309.761719 L 373.449219 311.140625 L 374.226562 258.980469 L 354.523438 206.074219 L 374.285156 249.816406 L 374.078125 141.757812 L 374.078125 141.398438 L 374.085938 141.75 L 375.394531 226.917969 L 393.351562 192.324219 L 375.453125 234.253906 L 375.84375 280.910156 L 392.371094 235.375 L 375.90625 287.769531 L 376.121094 313.710938 L 400.15625 250.285156 L 376.195312 322.761719 Z M 376.683594 380.453125 "/>
<path style=" stroke:none;fill-rule:nonzero;fill:rgb(90.196078%,90.196078%,90.196078%);fill-opacity:1;" d="M 41.253906 0 L 165.921875 0 L 165.921875 259.785156 L 41.253906 259.785156 Z M 41.253906 0 "/>
<path style=" stroke:none;fill-rule:nonzero;fill:rgb(100%,100%,100%);fill-opacity:1;" d="M 45.648438 9.15625 L 161.53125 9.15625 L 161.53125 250.632812 L 45.648438 250.632812 Z M 45.648438 9.15625 "/>
<path style=" stroke:none;fill-rule:nonzero;fill:rgb(90.196078%,90.196078%,90.196078%);fill-opacity:1;" d="M 146.296875 51.507812 L 61.25 51.507812 C 59.816406 51.503906 58.65625 49.714844 58.65625 47.503906 C 58.65625 45.292969 59.816406 43.5 61.25 43.5 L 146.296875 43.5 C 147.226562 43.496094 148.085938 44.257812 148.550781 45.5 C 149.015625 46.738281 149.015625 48.269531 148.550781 49.507812 C 148.085938 50.746094 147.226562 51.511719 146.296875 51.507812 Z M 146.296875 51.507812 "/>
<path style=" stroke:none;fill-rule:nonzero;fill:rgb(90.196078%,90.196078%,90.196078%);fill-opacity:1;" d="M 146.296875 92.703125 L 61.25 92.703125 C 59.816406 92.699219 58.65625 90.90625 58.65625 88.699219 C 58.65625 86.488281 59.816406 84.695312 61.25 84.691406 L 146.296875 84.691406 C 147.226562 84.691406 148.085938 85.453125 148.550781 86.695312 C 149.015625 87.933594 149.015625 89.460938 148.550781 90.703125 C 148.085938 91.941406 147.226562 92.707031 146.296875 92.703125 Z M 146.296875 92.703125 "/>
<path style=" stroke:none;fill-rule:nonzero;fill:rgb(90.196078%,90.196078%,90.196078%);fill-opacity:1;" d="M 146.296875 133.898438 L 61.25 133.898438 C 59.816406 133.894531 58.65625 132.101562 58.65625 129.894531 C 58.65625 127.683594 59.816406 125.890625 61.25 125.886719 L 146.296875 125.886719 C 147.226562 125.886719 148.085938 126.648438 148.550781 127.890625 C 149.015625 129.128906 149.015625 130.65625 148.550781 131.898438 C 148.085938 133.136719 147.226562 133.898438 146.296875 133.898438 Z M 146.296875 133.898438 "/>
<path style=" stroke:none;fill-rule:nonzero;fill:rgb(90.196078%,90.196078%,90.196078%);fill-opacity:1;" d="M 146.296875 175.09375 L 61.25 175.09375 C 59.816406 175.089844 58.65625 173.296875 58.65625 171.085938 C 58.65625 168.878906 59.816406 167.085938 61.25 167.082031 L 146.296875 167.082031 C 147.226562 167.082031 148.085938 167.84375 148.550781 169.082031 C 149.015625 170.324219 149.015625 171.851562 148.550781 173.089844 C 148.085938 174.332031 147.226562 175.09375 146.296875 175.09375 Z M 146.296875 175.09375 "/>
<path style=" stroke:none;fill-rule:nonzero;fill:rgb(90.196078%,90.196078%,90.196078%);fill-opacity:1;" d="M 146.296875 216.285156 L 61.25 216.285156 C 59.816406 216.285156 58.65625 214.492188 58.65625 212.28125 C 58.65625 210.070312 59.816406 208.28125 61.25 208.277344 L 146.296875 208.277344 C 147.226562 208.273438 148.085938 209.039062 148.550781 210.277344 C 149.015625 211.519531 149.015625 213.046875 148.550781 214.285156 C 148.085938 215.527344 147.226562 216.289062 146.296875 216.285156 Z M 146.296875 216.285156 "/>
<path style=" stroke:none;fill-rule:nonzero;fill:rgb(96.078431%,0%,34.117647%);fill-opacity:1;" d="M 131.441406 51.507812 L 60.878906 51.507812 C 59.949219 51.511719 59.089844 50.746094 58.625 49.507812 C 58.160156 48.269531 58.160156 46.738281 58.625 45.5 C 59.089844 44.257812 59.949219 43.496094 60.878906 43.5 L 131.441406 43.5 C 132.878906 43.5 134.039062 45.292969 134.039062 47.503906 C 134.039062 49.714844 132.878906 51.503906 131.441406 51.507812 Z M 131.441406 51.507812 "/>
<path style=" stroke:none;fill-rule:nonzero;fill:rgb(96.078431%,0%,34.117647%);fill-opacity:1;" d="M 109.53125 92.703125 L 60.878906 92.703125 C 59.445312 92.703125 58.28125 90.910156 58.28125 88.699219 C 58.28125 86.484375 59.445312 84.691406 60.878906 84.691406 L 109.53125 84.691406 C 110.460938 84.691406 111.320312 85.453125 111.785156 86.695312 C 112.25 87.933594 112.25 89.460938 111.785156 90.703125 C 111.320312 91.941406 110.460938 92.707031 109.53125 92.703125 Z M 109.53125 92.703125 "/>
<path style=" stroke:none;fill-rule:nonzero;fill:rgb(96.078431%,0%,34.117647%);fill-opacity:1;" d="M 82.792969 133.898438 L 60.878906 133.898438 C 59.949219 133.898438 59.089844 133.136719 58.625 131.898438 C 58.160156 130.65625 58.160156 129.128906 58.625 127.890625 C 59.089844 126.648438 59.949219 125.886719 60.878906 125.886719 L 82.792969 125.886719 C 84.226562 125.890625 85.386719 127.683594 85.386719 129.894531 C 85.386719 132.101562 84.226562 133.894531 82.792969 133.898438 Z M 82.792969 133.898438 "/>
<path style=" stroke:none;fill-rule:nonzero;fill:rgb(96.078431%,0%,34.117647%);fill-opacity:1;" d="M 138.128906 175.09375 L 60.878906 175.09375 C 59.445312 175.09375 58.28125 173.300781 58.28125 171.085938 C 58.28125 168.875 59.445312 167.082031 60.878906 167.082031 L 138.128906 167.082031 C 139.5625 167.082031 140.726562 168.875 140.726562 171.085938 C 140.726562 173.300781 139.5625 175.09375 138.128906 175.09375 Z M 138.128906 175.09375 "/>
<path style=" stroke:none;fill-rule:nonzero;fill:rgb(96.078431%,0%,34.117647%);fill-opacity:1;" d="M 121.042969 216.285156 L 60.878906 216.285156 C 59.949219 216.289062 59.089844 215.527344 58.625 214.285156 C 58.160156 213.046875 58.160156 211.519531 58.625 210.277344 C 59.089844 209.039062 59.949219 208.273438 60.878906 208.277344 L 121.042969 208.277344 C 121.972656 208.273438 122.832031 209.039062 123.296875 210.277344 C 123.761719 211.519531 123.761719 213.046875 123.296875 214.285156 C 122.832031 215.527344 121.972656 216.289062 121.042969 216.285156 Z M 121.042969 216.285156 "/>
<path style=" stroke:none;fill-rule:nonzero;fill:rgb(24.705882%,23.921569%,33.72549%);fill-opacity:1;" d="M 0 389.457031 L 398.207031 389.457031 L 398.207031 390.839844 L 0 390.839844 Z M 0 389.457031 "/>
<path style=" stroke:none;fill-rule:nonzero;fill:rgb(62.352941%,38.039216%,41.568627%);fill-opacity:1;" d="M 226.898438 187.15625 C 226.898438 187.15625 224.082031 155.3125 219.382812 163.996094 C 214.6875 172.679688 219.382812 185.707031 219.382812 185.707031 L 223.140625 192.945312 L 226.898438 188.601562 Z M 226.898438 187.15625 "/>
<path style=" stroke:none;fill-rule:nonzero;fill:rgb(96.078431%,0%,34.117647%);fill-opacity:1;" d="M 238.175781 197.289062 C 238.175781 197.289062 228.78125 181.367188 226.902344 184.261719 C 225.019531 187.15625 219.382812 188.601562 220.324219 194.390625 C 221.261719 200.183594 240.992188 219 240.992188 219 Z M 238.175781 197.289062 "/>
<use xlink:href="#surface5" mask="url(#mask0)"/>
<path style=" stroke:none;fill-rule:nonzero;fill:rgb(62.352941%,38.039216%,41.568627%);fill-opacity:1;" d="M 291.726562 195.839844 L 291.726562 207.417969 C 291.726562 207.417969 292.667969 233.472656 287.03125 232.027344 C 281.394531 230.578125 284.210938 208.867188 284.210938 208.867188 L 285.152344 195.839844 Z M 291.726562 195.839844 "/>
<path style=" stroke:none;fill-rule:nonzero;fill:rgb(62.352941%,38.039216%,41.568627%);fill-opacity:1;" d="M 288.910156 279.792969 C 288.910156 279.792969 297.367188 300.054688 300.183594 301.503906 C 303.003906 302.949219 318.035156 315.976562 319.914062 329.003906 L 333.066406 355.058594 L 326.492188 368.085938 C 326.492188 368.085938 296.425781 318.871094 287.96875 314.53125 C 279.515625 310.1875 271.058594 288.476562 271.058594 288.476562 Z M 288.910156 279.792969 "/>
<path style=" stroke:none;fill-rule:nonzero;fill:rgb(62.352941%,38.039216%,41.568627%);fill-opacity:1;" d="M 222.203125 246.5 C 222.203125 246.5 204.351562 250.84375 207.171875 268.210938 C 209.988281 285.582031 237.234375 321.765625 237.234375 321.765625 L 238.175781 330.453125 L 248.507812 333.347656 L 253.207031 326.109375 L 252.269531 321.765625 C 252.269531 321.765625 240.992188 305.84375 240.054688 300.054688 C 239.113281 294.265625 228.78125 271.105469 224.082031 269.660156 L 230.660156 263.871094 Z M 222.203125 246.5 "/>
<path style=" stroke:none;fill-rule:nonzero;fill:rgb(18.431373%,18.039216%,25.490196%);fill-opacity:1;" d="M 330.25 355.058594 C 330.25 355.058594 326.492188 346.371094 332.128906 347.820312 C 337.765625 349.269531 341.523438 350.714844 341.523438 356.503906 C 341.523438 362.292969 336.824219 402.824219 331.1875 399.929688 C 325.550781 397.03125 330.25 384.007812 330.25 384.007812 C 330.25 384.007812 327.429688 372.425781 325.550781 370.980469 C 323.671875 369.53125 323.671875 362.292969 325.550781 362.292969 C 327.429688 362.292969 331.1875 357.953125 330.25 355.058594 Z M 330.25 355.058594 "/>
<path style=" stroke:none;fill-rule:nonzero;fill:rgb(18.431373%,18.039216%,25.490196%);fill-opacity:1;" d="M 250.390625 323.214844 C 250.390625 323.214844 250.390625 315.976562 254.148438 323.214844 C 257.90625 330.453125 259.785156 336.242188 256.027344 340.582031 C 252.269531 344.925781 239.113281 355.058594 239.113281 355.058594 C 239.113281 355.058594 225.019531 359.398438 226.898438 349.269531 C 226.898438 349.269531 236.296875 342.03125 236.296875 336.242188 C 236.296875 330.453125 236.296875 320.320312 239.113281 323.214844 C 241.933594 326.109375 250.390625 327.554688 250.390625 323.214844 Z M 250.390625 323.214844 "/>
<path style=" stroke:none;fill-rule:nonzero;fill:rgb(18.431373%,18.039216%,25.490196%);fill-opacity:1;" d="M 268.238281 214.65625 C 268.238281 214.65625 281.394531 217.550781 280.453125 246.5 C 280.453125 246.5 297.367188 272.554688 292.667969 281.238281 C 287.96875 289.921875 277.636719 305.84375 273.878906 301.503906 C 270.117188 297.160156 258.84375 263.871094 258.84375 263.871094 C 258.84375 263.871094 232.539062 278.34375 227.839844 271.105469 C 223.140625 263.871094 218.445312 246.5 218.445312 246.5 L 241.933594 227.683594 Z M 268.238281 214.65625 "/>
<path style=" stroke:none;fill-rule:nonzero;fill:rgb(62.352941%,38.039216%,41.568627%);fill-opacity:1;" d="M 242.871094 114.785156 C 242.871094 124.375 237.824219 132.152344 231.597656 132.152344 C 225.371094 132.152344 220.324219 124.375 220.324219 114.785156 C 220.324219 105.191406 225.371094 97.414062 231.597656 97.414062 C 237.824219 97.414062 242.871094 105.191406 242.871094 114.785156 Z M 242.871094 114.785156 "/>
<path style=" stroke:none;fill-rule:nonzero;fill:rgb(62.352941%,38.039216%,41.568627%);fill-opacity:1;" d="M 240.054688 116.230469 C 240.054688 116.230469 246.628906 132.152344 248.507812 133.601562 C 250.390625 135.046875 235.355469 149.523438 235.355469 149.523438 C 235.355469 149.523438 235.355469 130.707031 230.660156 126.363281 Z M 240.054688 116.230469 "/>
<path style=" stroke:none;fill-rule:nonzero;fill:rgb(96.078431%,0%,34.117647%);fill-opacity:1;" d="M 240.992188 132.152344 C 240.992188 132.152344 256.027344 124.914062 258.84375 136.496094 C 261.664062 148.074219 268.238281 169.785156 267.300781 184.261719 C 266.359375 198.734375 264.480469 195.839844 267.300781 200.183594 C 270.117188 204.523438 271.996094 201.628906 271.058594 207.417969 C 270.117188 213.210938 269.179688 213.210938 270.117188 216.105469 C 271.058594 219 258.84375 229.132812 248.507812 230.578125 L 238.175781 232.027344 C 238.175781 232.027344 238.175781 205.972656 236.296875 200.183594 C 234.417969 194.390625 230.660156 182.8125 230.660156 178.472656 L 230.660156 166.980469 C 230.660156 159.335938 231.953125 151.820312 234.417969 145.179688 C 234.417969 145.179688 240.054688 132.152344 240.992188 132.152344 Z M 240.992188 132.152344 "/>
<path style=" stroke:none;fill-rule:nonzero;fill:rgb(96.078431%,0%,34.117647%);fill-opacity:1;" d="M 252.269531 137.941406 C 252.269531 137.941406 287.03125 142.285156 290.789062 156.757812 C 294.546875 171.234375 296.425781 200.183594 292.667969 200.183594 C 288.910156 200.183594 284.210938 203.078125 283.273438 200.183594 C 282.332031 197.289062 278.574219 168.339844 277.636719 168.339844 C 276.695312 168.339844 248.507812 163.996094 248.507812 163.996094 C 248.507812 163.996094 236.296875 140.835938 252.269531 137.941406 Z M 252.269531 137.941406 "/>
<path style=" stroke:none;fill-rule:nonzero;fill:rgb(18.431373%,18.039216%,25.490196%);fill-opacity:1;" d="M 231.144531 110.476562 C 231.144531 110.476562 228.152344 102.46875 224.414062 109.425781 C 220.671875 116.382812 214.589844 103.597656 215.523438 100.867188 C 216.457031 98.140625 219.753906 100.992188 225.40625 98.144531 C 231.058594 95.296875 241.949219 89.5 243.773438 108.414062 C 245.59375 127.332031 241.253906 125.347656 241.253906 125.347656 C 241.253906 125.347656 239.261719 108.585938 237.460938 113.402344 L 235.664062 118.21875 L 234.101562 118.808594 Z M 231.144531 110.476562 "/>
</g>
</svg>
